<?xml version="1.0" standalone="no"?>
<!DOCTYPE svg PUBLIC "-//W3C//DTD SVG 20010904//EN"
 "http://www.w3.org/TR/2001/REC-SVG-20010904/DTD/svg10.dtd">
<svg version="1.0" xmlns="http://www.w3.org/2000/svg"
 width="925.000000pt" height="279.000000pt" viewBox="0 0 925.000000 279.000000"
 preserveAspectRatio="xMidYMid meet">
<metadata>
Created by potrace 1.15, written by Peter Selinger 2001-2017
</metadata>
<g transform="translate(0.000000,279.000000) scale(0.100000,-0.100000)"
fill="#000000" stroke="none">
<path d="M617 2330 c-507 -262 -659 -933 -319 -1410 255 -358 733 -480 1121
-288 191 95 346 259 430 457 17 39 31 75 32 79 1 4 5 17 10 30 12 30 11 32 -3
28 -7 -1 -10 -1 -5 1 13 8 8 33 -7 33 -8 0 -25 12 -38 28 -12 15 -34 34 -48
43 -14 9 -131 122 -261 251 -183 182 -244 237 -269 242 -18 3 -132 6 -254 6
-202 0 -224 2 -253 20 -83 50 -84 190 -1 236 14 8 61 13 121 14 79 0 97 3 97
15 0 8 -6 15 -12 15 -10 0 -9 3 1 9 11 7 10 10 -5 15 -11 3 -36 22 -57 41 -21
19 -41 35 -45 35 -4 0 -18 16 -32 35 -14 19 -29 35 -35 35 -5 0 -21 16 -35 35
-14 19 -32 34 -40 35 -8 0 -50 -18 -93 -40z m569 -741 c45 -45 55 -99 28 -154
-32 -68 -55 -75 -254 -75 -193 0 -210 4 -247 59 -37 55 -27 141 23 182 21 17
135 27 296 25 l118 -1 36 -36z m-310 -467 c32 -25 44 -55 44 -107 0 -113 -125
-167 -194 -84 -48 56 -46 125 3 178 25 26 36 31 78 31 30 0 56 -7 69 -18z"/>
<path d="M4728 2045 c-95 -26 -175 -72 -240 -137 -115 -115 -171 -266 -171
-458 1 -370 221 -601 570 -600 190 1 371 80 413 180 29 70 -24 150 -100 150
-29 0 -48 -8 -79 -34 -132 -110 -305 -123 -444 -34 -197 126 -221 485 -44 644
125 113 334 125 448 26 24 -22 55 -45 68 -51 60 -32 141 25 141 99 0 49 -39
97 -124 152 -89 57 -168 78 -290 77 -55 0 -122 -7 -148 -14z"/>
<path d="M3813 2028 c-17 -4 -41 -20 -52 -34 -21 -26 -21 -37 -21 -551 l0
-525 29 -29 c24 -24 38 -29 76 -29 38 0 52 5 76 29 l29 29 0 526 0 525 -22 26
c-28 31 -73 44 -115 33z"/>
<path d="M8163 2033 c-41 -8 -73 -51 -73 -100 0 -99 30 -113 235 -113 l155 0
0 -453 0 -453 28 -26 c37 -36 71 -43 116 -24 66 27 66 31 66 520 l0 435 160 3
c157 3 160 3 186 29 57 58 33 157 -43 178 -36 10 -780 14 -830 4z"/>
<path d="M2645 2021 c-45 -19 -60 -49 -64 -132 l-3 -79 352 0 c386 0 399 2
433 59 33 57 12 130 -44 150 -38 13 -643 14 -674 2z"/>
<path d="M5698 2001 l-33 -29 -3 -510 c-1 -316 1 -519 7 -535 13 -33 50 -57
99 -64 33 -4 44 -1 73 25 l34 30 3 211 3 211 265 0 264 0 0 -205 0 -205 29
-32 c25 -28 36 -33 75 -33 36 0 51 6 73 28 l28 27 3 503 c2 342 0 514 -8 539
-17 60 -87 85 -149 54 -46 -24 -51 -50 -51 -261 l0 -195 -265 0 -265 0 0 189
c0 112 -4 201 -11 220 -23 64 -115 82 -171 32z"/>
<path d="M7041 2004 c-30 -25 -31 -28 -31 -110 l0 -84 350 0 c377 0 389 2 424
52 19 27 21 77 4 113 -24 53 -39 55 -392 55 l-324 0 -31 -26z"/>
<path d="M2587 1583 c-4 -3 -7 -146 -7 -317 0 -359 2 -370 77 -396 51 -17 87
-7 117 33 20 27 21 43 24 248 l3 219 215 0 c239 0 271 6 298 59 19 36 20 71 4
106 -24 53 -39 55 -396 55 -181 0 -332 -3 -335 -7z"/>
<path d="M7010 1259 c0 -207 4 -337 10 -350 25 -46 49 -49 393 -49 211 0 335
4 356 11 64 23 82 115 32 171 l-29 33 -276 3 -276 3 0 144 0 145 224 0 224 0
31 26 c36 30 48 78 31 128 -21 66 -22 66 -390 66 l-330 0 0 -331z"/>
</g>
</svg>
